{
  "accessors": [
    {
      "bufferView": 2,
      "componentType": 5126,
      "count": 65532,
      "max": [
        0.7478960156440735,
        6.898128986358643,
        1.196876049041748
      ],
      "min": [
        -0.5187039971351624,
        5.503530025482178,
        -3.0130488872528076
      ],
      "type": "VEC3"
    },
    {
      "bufferView": 2,
      "byteOffset": 786384,
      "componentType": 5126,
      "count": 65532,
      "max": [
        0.9999737739562988,
        0.9998665452003479,
        0.9999723434448242
      ],
      "min": [
        -0.9999852180480957,
        -0.9999964833259583,
        -0.9999879002571106
      ],
      "type": "VEC3"
    },
    {
      "bufferView": 3,
      "componentType": 5126,
      "count": 65532,
      "max": [
        0.9882352948188782,
        0.9019607901573181,
        0.9921568632125854,
        1.0
      ],
      "min": [
        0.0,
        0.0117647061124444,
        0.0117647061124444,
        1.0
      ],
      "type": "VEC4"
    },
    {
      "bufferView": 1,
      "componentType": 5126,
      "count": 65532,
      "max": [
        0.9994580149650574,
        0.9998819828033447
      ],
      "min": [
        5.700000110664405e-05,
        4.600000102072954e-05
      ],
      "type": "VEC2"
    },
    {
      "bufferView": 0,
      "componentType": 5125,
      "count": 356832,
      "type": "SCALAR"
    },
    {
      "bufferView": 2,
      "byteOffset": 1572768,
      "componentType": 5126,
      "count": 65532,
      "max": [
        1.0408090353012085,
        6.885654926300049,
        1.2218409776687622
      ],
      "min": [
        -0.6662179827690125,
        5.742318153381348,
        -3.030431032180786
      ],
      "type": "VEC3"
    },
    {
      "bufferView": 2,
      "byteOffset": 2359152,
      "componentType": 5126,
      "count": 65532,
      "max": [
        0.9999977350234985,
        0.9999502301216125,
        0.9999683499336243
      ],
      "min": [
        -0.9999382495880127,
        -0.9999945163726807,
        -0.9996343851089478
      ],
      "type": "VEC3"
    },
    {
      "bufferView": 3,
      "byteOffset": 1048512,
      "componentType": 5126,
      "count": 65532,
      "max": [
        0.9960784316062927,
        0.9019607901573181,
        0.9921568632125854,
        1.0
      ],
      "min": [
        0.0,
        0.01568627543747425,
        0.0313725508749485,
        1.0
      ],
      "type": "VEC4"
    },
    {
      "bufferView": 1,
      "byteOffset": 524256,
      "componentType": 5126,
      "count": 65532,
      "max": [
        0.9993810057640076,
        0.9997640252113342
      ],
      "min": [
        7.79999973019585e-05,
        0.0005939999828115106
      ],
      "type": "VEC2"
    },
    {
      "bufferView": 0,
      "byteOffset": 1427328,
      "componentType": 5125,
      "count": 338286,
      "type": "SCALAR"
    },
    {
      "bufferView": 2,
      "byteOffset": 3145536,
      "componentType": 5126,
      "count": 65532,
      "max": [
        1.0045720338821411,
        7.034708023071289,
        1.3761589527130127
      ],
      "min": [
        -0.6651260256767273,
        5.529551029205322,
        -3.0349819660186768
      ],
      "type": "VEC3"
    },
    {
      "bufferView": 2,
      "byteOffset": 3931920,
      "componentType": 5126,
      "count": 65532,
      "max": [
        0.9999923706054688,
        0.9999796152114868,
        0.9999143481254578
      ],
      "min": [
        -0.9999563694000244,
        -0.999986469745636,
        -0.9998242259025574
      ],
      "type": "VEC3"
    },
    {
      "bufferView": 3,
      "byteOffset": 2097024,
      "componentType": 5126,
      "count": 65532,
      "max": [
        0.9960784316062927,
        0.8588235378265381,
        0.9529411792755127,
        1.0
      ],
      "min": [
        0.019607843831181526,
        0.0,
        0.007843137718737125,
        1.0
      ],
      "type": "VEC4"
    },
    {
      "bufferView": 1,
      "byteOffset": 1048512,
      "componentType": 5126,
      "count": 65532,
      "max": [
        0.9994180202484131,
        0.9999139904975891
      ],
      "min": [
        0.00014000000373926014,
        2.9000000722589903e-05
      ],
      "type": "VEC2"
    },
    {
      "bufferView": 0,
      "byteOffset": 2780472,
      "componentType": 5125,
      "count": 346536,
      "type": "SCALAR"
    },
    {
      "bufferView": 2,
      "byteOffset": 4718304,
      "componentType": 5126,
      "count": 65532,
      "max": [
        0.9866719841957092,
        6.837194919586182,
        1.0289260149002075
      ],
      "min": [
        -0.32898399233818054,
        5.453527927398682,
        -2.1092119216918945
      ],
      "type": "VEC3"
    },
    {
      "bufferView": 2,
      "byteOffset": 5504688,
      "componentType": 5126,
      "count": 65532,
      "max": [
        0.9999998807907104,
        0.9999899864196777,
        0.9999193549156189
      ],
      "min": [
        -0.9999451041221619,
        -0.9999961256980896,
        -0.9999716281890869
      ],
      "type": "VEC3"
    },
    {
      "bufferView": 3,
      "byteOffset": 3145536,
      "componentType": 5126,
      "count": 65532,
      "max": [
        0.9843137264251709,
        0.8627451062202454,
        0.9019607901573181,
        1.0
      ],
      "min": [
        0.019607843831181526,
        0.0,
        0.01568627543747425,
        1.0
      ],
      "type": "VEC4"
    },
    {
      "bufferView": 1,
      "byteOffset": 1572768,
      "componentType": 5126,
      "count": 65532,
      "max": [
        0.9998739957809448,
        0.9999679923057556
      ],
      "min": [
        0.00015199999324977398,
        1.5999999959603883e-05
      ],
      "type": "VEC2"
    },
    {
      "bufferView": 0,
      "byteOffset": 4166616,
      "componentType": 5125,
      "count": 332349,
      "type": "SCALAR"
    },
    {
      "bufferView": 2,
      "byteOffset": 6291072,
      "componentType": 5126,
      "count": 65316,
      "max": [
        0.6300830245018005,
        7.029905796051025,
        -0.41923999786376953
      ],
      "min": [
        -0.5534470081329346,
        5.672323226928711,
        -2.9982199668884277
      ],
      "type": "VEC3"
    },
    {
      "bufferView": 2,
      "byteOffset": 7074864,
      "componentType": 5126,
      "count": 65316,
      "max": [
        0.9999227523803711,
        0.9999961256980896,
        0.9999683499336243
      ],
      "min": [
        -0.9999571442604065,
        -0.9999813437461853,
        -0.9999946355819702
      ],
      "type": "VEC3"
    },
    {
      "bufferView": 3,
      "byteOffset": 4194048,
      "componentType": 5126,
      "count": 65316,
      "max": [
        0.9490196108818054,
        0.8588235378265381,
        0.9843137264251709,
        1.0
      ],
      "min": [
        0.0,
        0.0,
        0.01568627543747425,
        1.0
      ],
      "type": "VEC4"
    },
    {
      "bufferView": 1,
      "byteOffset": 2097024,
      "componentType": 5126,
      "count": 65316,
      "max": [
        0.9995059967041016,
        0.9999740123748779
      ],
      "min": [
        6.900000153109431e-05,
        9.000000318337698e-06
      ],
      "type": "VEC2"
    },
    {
      "bufferView": 0,
      "byteOffset": 5496012,
      "componentType": 5125,
      "count": 326805,
      "type": "SCALAR"
    }
  ],
  "asset": {
    "extras": {
      "author": "mnaglak (https://sketchfab.com/mnaglak)",
      "license": "CC-BY-4.0 (http://creativecommons.org/licenses/by/4.0/)",
      "source": "https://sketchfab.com/3d-models/haitian-paket-kongo-healing-initiatory-bundle-f53d884cf9764219a366fa6b89d73944",
      "title": "Haitian pakèt kongo: healing & initiatory bundle"
    },
    "generator": "Sketchfab-12.87.0",
    "version": "2.0"
  },
  "bufferViews": [
    {
      "buffer": 0,
      "byteLength": 6803232,
      "name": "floatBufferViews",
      "target": 34963
    },
    {
      "buffer": 0,
      "byteLength": 2619552,
      "byteOffset": 6803232,
      "byteStride": 8,
      "name": "floatBufferViews",
      "target": 34962
    },
    {
      "buffer": 0,
      "byteLength": 7858656,
      "byteOffset": 9422784,
      "byteStride": 12,
      "name": "floatBufferViews",
      "target": 34962
    },
    {
      "buffer": 0,
      "byteLength": 5239104,
      "byteOffset": 17281440,
      "byteStride": 16,
      "name": "floatBufferViews",
      "target": 34962
    }
  ],
  "buffers": [
    {
      "byteLength": 22520544,
      "uri": "scene.bin"
    }
  ],
  "images": [
    {
      "uri": "textures/ritualObject_baseColor.jpeg"
    }
  ],
  "materials": [
    {
      "doubleSided": true,
      "name": "ritualObject",
      "pbrMetallicRoughness": {
        "baseColorTexture": {
          "index": 0
        },
        "metallicFactor": 0.0
      }
    }
  ],
  "meshes": [
    {
      "name": "Object_0",
      "primitives": [
        {
          "attributes": {
            "COLOR_0": 2,
            "NORMAL": 1,
            "POSITION": 0,
            "TEXCOORD_0": 3
          },
          "indices": 4,
          "material": 0,
          "mode": 4
        }
      ]
    },
    {
      "name": "Object_1",
      "primitives": [
        {
          "attributes": {
            "COLOR_0": 7,
            "NORMAL": 6,
            "POSITION": 5,
            "TEXCOORD_0": 8
          },
          "indices": 9,
          "material": 0,
          "mode": 4
        }
      ]
    },
    {
      "name": "Object_2",
      "primitives": [
        {
          "attributes": {
            "COLOR_0": 12,
            "NORMAL": 11,
            "POSITION": 10,
            "TEXCOORD_0": 13
          },
          "indices": 14,
          "material": 0,
          "mode": 4
        }
      ]
    },
    {
      "name": "Object_3",
      "primitives": [
        {
          "attributes": {
            "COLOR_0": 17,
            "NORMAL": 16,
            "POSITION": 15,
            "TEXCOORD_0": 18
          },
          "indices": 19,
          "material": 0,
          "mode": 4
        }
      ]
    },
    {
      "name": "Object_4",
      "primitives": [
        {
          "attributes": {
            "COLOR_0": 22,
            "NORMAL": 21,
            "POSITION": 20,
            "TEXCOORD_0": 23
          },
          "indices": 24,
          "material": 0,
          "mode": 4
        }
      ]
    }
  ],
  "nodes": [
    {
      "children": [
        1
      ],
      "matrix": [
        1.0,
        0.0,
        0.0,
        0.0,
        0.0,
        2.220446049250313e-16,
        -1.0,
        0.0,
        0.0,
        1.0,
        2.220446049250313e-16,
        0.0,
        0.0,
        0.0,
        0.0,
        1.0
      ],
      "name": "Sketchfab_model"
    },
    {
      "children": [
        2,
        3,
        4,
        5,
        6
      ],
      "name": "ritualObject.obj.cleaner.materialmerger.gles"
    },
    {
      "mesh": 0,
      "name": "Object_2"
    },
    {
      "mesh": 1,
      "name": "Object_3"
    },
    {
      "mesh": 2,
      "name": "Object_4"
    },
    {
      "mesh": 3,
      "name": "Object_5"
    },
    {
      "mesh": 4,
      "name": "Object_6"
    }
  ],
  "samplers": [
    {
      "magFilter": 9729,
      "minFilter": 9987,
      "wrapS": 10497,
      "wrapT": 10497
    }
  ],
  "scene": 0,
  "scenes": [
    {
      "name": "Sketchfab_Scene",
      "nodes": [
        0
      ]
    }
  ],
  "textures": [
    {
      "sampler": 0,
      "source": 0
    }
  ]
}
